<?xml version="1.0" encoding="utf-8"?>
<!-- Generator: Adobe Illustrator 24.0.3, SVG Export Plug-In . SVG Version: 6.00 Build 0)  -->
<svg version="1.1" xmlns="http://www.w3.org/2000/svg" xmlns:xlink="http://www.w3.org/1999/xlink" x="0px" y="0px"
	 viewBox="0 0 440.6 146.4" style="enable-background:new 0 0 440.6 146.4;" xml:space="preserve">
<style type="text/css">
	.st0{display:none;}
	.st1{display:inline;}
	.st2{fill:#3C828B;}
	.st3{fill:#CEDDEB;}
	.st4{fill:#FFFFFF;}
	.st5{opacity:0.4;fill:#34536D;}
	.st6{fill:#B7BDD7;}
	.st7{fill:#91A6B8;}
	.st8{fill:#605594;}
	.st9{fill:#CFD1D3;}
	.st10{fill:#9592B2;}
</style>
<g id="Layer_1" class="st0">
	<g class="st1">
		<g>
			<g>
				<path class="st2" d="M182.4,61.5c0,4.2-0.8,7.9-2.3,11c-1.6,3.1-3.6,5.6-6.1,7.6c-2.5,2-5.4,3.4-8.6,4.4
					c-3.2,0.9-6.4,1.4-9.7,1.4h-17.8V37.4h17.3c3.4,0,6.7,0.4,10,1.2c3.3,0.8,6.2,2.1,8.8,4c2.6,1.8,4.6,4.3,6.2,7.4
					C181.7,53.1,182.4,56.9,182.4,61.5z M170.4,61.5c0-2.7-0.4-5-1.3-6.8c-0.9-1.8-2-3.2-3.5-4.3c-1.5-1.1-3.1-1.8-5-2.3
					c-1.9-0.5-3.8-0.7-5.8-0.7h-5.7v28.3h5.5c2.1,0,4.1-0.2,6-0.7c1.9-0.5,3.6-1.3,5.1-2.4c1.5-1.1,2.6-2.6,3.5-4.4
					C170,66.4,170.4,64.2,170.4,61.5z"/>
				<path class="st2" d="M219.7,85.8l-3.7-9.5h-18.5l-3.5,9.5h-12.6l20.1-48.4h11.2l19.9,48.4H219.7z M206.9,50.4L200.8,67h12
					L206.9,50.4z"/>
				<path class="st2" d="M253.4,65.3v20.5h-11.5V65.3l-18-27.9h14L248,55.3l10.2-17.9h13.5L253.4,65.3z"/>
				<path class="st2" d="M296.8,47.4v38.4h-11.5V47.4h-13.5v-10h38.6v10H296.8z"/>
				<path class="st2" d="M362.9,61.4c0,3.8-0.7,7.3-2,10.5c-1.3,3.2-3.1,5.9-5.4,8.1c-2.3,2.3-5.1,4-8.3,5.2
					c-3.2,1.2-6.7,1.8-10.4,1.8c-3.7,0-7.2-0.6-10.4-1.8c-3.2-1.2-5.9-3-8.2-5.2c-2.3-2.3-4.1-5-5.4-8.1c-1.3-3.2-2-6.7-2-10.5
					c0-3.9,0.7-7.4,2-10.5c1.3-3.1,3.1-5.8,5.4-8c2.3-2.2,5.1-3.9,8.2-5.1c3.2-1.2,6.6-1.8,10.4-1.8c3.7,0,7.2,0.6,10.4,1.8
					c3.2,1.2,6,2.9,8.3,5.1c2.3,2.2,4.1,4.8,5.4,8C362.3,54.1,362.9,57.6,362.9,61.4z M350.6,61.4c0-2.1-0.3-4.1-1-5.9
					c-0.7-1.8-1.6-3.4-2.8-4.7c-1.2-1.3-2.6-2.3-4.3-3.1c-1.7-0.8-3.5-1.1-5.6-1.1c-2,0-3.9,0.4-5.5,1.1c-1.7,0.8-3.1,1.8-4.3,3.1
					c-1.2,1.3-2.2,2.9-2.8,4.7c-0.7,1.8-1,3.8-1,5.9c0,2.2,0.3,4.2,1,6c0.7,1.8,1.6,3.4,2.8,4.7c1.2,1.3,2.6,2.4,4.3,3.1
					c1.7,0.8,3.5,1.1,5.5,1.1c2,0,3.9-0.4,5.5-1.1c1.7-0.8,3.1-1.8,4.3-3.1c1.2-1.3,2.2-2.9,2.8-4.7
					C350.2,65.6,350.6,63.6,350.6,61.4z"/>
				<path class="st2" d="M399.8,85.8l-19.2-31.6h-0.2l0.3,31.6h-11.2V37.4h13.2L401.7,69h0.2l-0.3-31.6h11.2v48.4H399.8z"/>
			</g>
			<g>
				<path class="st2" d="M151.4,98.4h-2.2v-1.9h6.2v1.9h-2.2v13.4h-2.3l-7.3-12.9v10.9h2.2v1.9h-6.2v-1.9h2.2V98.4h-2.2v-1.9h5.2
					l6.6,11.7V98.4z"/>
				<path class="st2" d="M173.7,100.9v-2.5h-6.5v4.5h5.6v1.9h-5.6v5h6.5V107h1.9v4.6H163v-1.9h1.9V98.4H163v-1.9h12.6v4.4H173.7z"/>
				<path class="st2" d="M189,98.4v11.3h1.6v1.9H185v-1.9h1.6V98.4H185v-1.9h5.6v1.9H189z"/>
				<path class="st2" d="M210.6,98.2v-1.7h1.9v5h-1.9c-0.4-1-1.1-1.7-2.1-2.3c-1-0.6-2-0.9-3-0.9c-1,0-2,0.2-2.8,0.7
					c-0.8,0.5-1.4,1.2-1.9,2c-0.5,0.9-0.7,1.8-0.7,2.9c0,1.1,0.2,2.2,0.7,3.1c0.5,0.9,1.1,1.6,2,2.1c0.8,0.5,1.8,0.7,2.9,0.7
					c0.8,0,1.6-0.1,2.3-0.5c0.7-0.3,1.3-0.7,1.8-1.3c0.5-0.6,0.8-1.2,0.9-1.9h-2.8v-1.9h5.5v0.5c0,1.4-0.3,2.7-1,3.8
					c-0.7,1.1-1.6,1.9-2.7,2.5c-1.2,0.6-2.4,0.9-3.9,0.9c-1.6,0-3.1-0.3-4.3-1c-1.2-0.7-2.2-1.6-2.8-2.8c-0.7-1.2-1-2.6-1-4.1
					c0-1.5,0.3-2.8,1-4c0.7-1.2,1.6-2.1,2.7-2.8c1.2-0.7,2.5-1,3.9-1C207.4,96.3,209.2,96.9,210.6,98.2z"/>
				<path class="st2" d="M225.7,98.4v4.3h6.6v-4.3h-1.8v-1.9h5.8v1.9h-1.7v11.3h1.7v1.9h-5.8v-1.9h1.8v-5.2h-6.6v5.2h1.8v1.9h-5.8
					v-1.9h1.7V98.4h-1.7v-1.9h5.8v1.9H225.7z"/>
				<path class="st2" d="M256.1,100.4c0,0.7-0.2,1.3-0.5,1.9c-0.3,0.5-0.8,1-1.4,1.2c0.8,0.3,1.5,0.8,2,1.4c0.5,0.6,0.7,1.4,0.7,2.3
					c0,1.4-0.5,2.5-1.6,3.3c-1.1,0.8-2.6,1.1-4.7,1.1h-5.2v-1.9h1.9V98.4h-1.9v-1.9h5.3c1.8,0,3.2,0.3,4.1,1S256.1,99.1,256.1,100.4
					z M253.8,100.5c0-0.7-0.3-1.2-0.8-1.6c-0.5-0.4-1.2-0.5-2.1-0.5h-1.5v4.4h1.5C252.9,102.8,253.8,102,253.8,100.5z M254.6,107.2
					c0-0.8-0.3-1.5-0.9-1.9c-0.6-0.4-1.5-0.6-2.8-0.6h-1.5v5.1h0.9c0.9,0,1.6-0.1,2.2-0.2c0.6-0.1,1.1-0.4,1.4-0.7
					C254.4,108.5,254.6,107.9,254.6,107.2z"/>
				<path class="st2" d="M279.6,104c0,1.5-0.3,2.9-1,4.1c-0.7,1.2-1.6,2.1-2.8,2.8c-1.2,0.7-2.6,1-4.1,1c-1.5,0-2.8-0.3-4-1
					c-1.2-0.7-2.1-1.6-2.7-2.8c-0.7-1.2-1-2.6-1-4.1c0-1.5,0.3-2.8,1-4c0.7-1.2,1.6-2.1,2.8-2.7c1.2-0.7,2.5-1,4-1
					c1.6,0,2.9,0.3,4.1,1c1.2,0.7,2.1,1.6,2.8,2.8C279.3,101.2,279.6,102.5,279.6,104z M271.8,109.8c1,0,2-0.3,2.8-0.8
					c0.8-0.5,1.4-1.3,1.9-2.2c0.4-0.9,0.7-1.9,0.7-2.9c0-1-0.2-2-0.7-2.9c-0.5-0.9-1.1-1.6-2-2.1c-0.8-0.5-1.8-0.8-2.8-0.8
					c-1,0-1.9,0.2-2.7,0.7c-0.8,0.5-1.4,1.2-1.8,2.1c-0.4,0.9-0.6,1.8-0.6,2.9c0,1.1,0.2,2.2,0.6,3c0.4,0.9,1.1,1.6,1.9,2.1
					C269.8,109.6,270.7,109.8,271.8,109.8z"/>
				<path class="st2" d="M299.4,100.5c0,1-0.3,1.8-0.8,2.4c-0.5,0.7-1.3,1.1-2.3,1.4l2.7,5.5h1.8v1.9h-3.4l-3.3-7h-2.1v5.2h1.9v1.9
					h-6.3v-1.9h2V98.4h-2v-1.9h6.3c1.9,0,3.3,0.3,4.2,1C298.9,98.1,299.4,99.1,299.4,100.5z M297,100.4c0-0.7-0.2-1.2-0.7-1.5
					c-0.4-0.3-1.1-0.5-2.1-0.5h-2.3v4.3h2.2c1,0,1.7-0.2,2.2-0.5C296.8,101.8,297,101.2,297,100.4z"/>
				<path class="st2" d="M313.7,98.4v4.3h6.6v-4.3h-1.8v-1.9h5.8v1.9h-1.7v11.3h1.7v1.9h-5.8v-1.9h1.8v-5.2h-6.6v5.2h1.8v1.9h-5.8
					v-1.9h1.7V98.4h-1.7v-1.9h5.8v1.9H313.7z"/>
				<path class="st2" d="M348.2,104c0,1.5-0.3,2.9-1,4.1c-0.7,1.2-1.6,2.1-2.8,2.8c-1.2,0.7-2.6,1-4.1,1c-1.5,0-2.8-0.3-4-1
					c-1.2-0.7-2.1-1.6-2.7-2.8c-0.7-1.2-1-2.6-1-4.1c0-1.5,0.3-2.8,1-4c0.7-1.2,1.6-2.1,2.8-2.7c1.2-0.7,2.5-1,4-1
					c1.6,0,2.9,0.3,4.1,1c1.2,0.7,2.1,1.6,2.8,2.8C347.9,101.2,348.2,102.5,348.2,104z M340.4,109.8c1,0,2-0.3,2.8-0.8
					c0.8-0.5,1.4-1.3,1.9-2.2c0.4-0.9,0.7-1.9,0.7-2.9c0-1-0.2-2-0.7-2.9c-0.5-0.9-1.1-1.6-2-2.1c-0.8-0.5-1.8-0.8-2.8-0.8
					c-1,0-1.9,0.2-2.7,0.7c-0.8,0.5-1.4,1.2-1.8,2.1c-0.4,0.9-0.6,1.8-0.6,2.9c0,1.1,0.2,2.2,0.6,3c0.4,0.9,1.1,1.6,1.9,2.1
					C338.4,109.6,339.3,109.8,340.4,109.8z"/>
				<path class="st2" d="M371.3,104c0,1.5-0.3,2.9-1,4.1c-0.7,1.2-1.6,2.1-2.8,2.8c-1.2,0.7-2.6,1-4.1,1c-1.5,0-2.8-0.3-4-1
					c-1.2-0.7-2.1-1.6-2.7-2.8c-0.7-1.2-1-2.6-1-4.1c0-1.5,0.3-2.8,1-4c0.7-1.2,1.6-2.1,2.8-2.7c1.2-0.7,2.5-1,4-1
					c1.6,0,2.9,0.3,4.1,1c1.2,0.7,2.1,1.6,2.8,2.8C370.9,101.2,371.3,102.5,371.3,104z M363.4,109.8c1,0,2-0.3,2.8-0.8
					c0.8-0.5,1.4-1.3,1.9-2.2c0.4-0.9,0.7-1.9,0.7-2.9c0-1-0.2-2-0.7-2.9c-0.5-0.9-1.1-1.6-2-2.1c-0.8-0.5-1.8-0.8-2.8-0.8
					c-1,0-1.9,0.2-2.7,0.7c-0.8,0.5-1.4,1.2-1.8,2.1c-0.4,0.9-0.6,1.8-0.6,2.9c0,1.1,0.2,2.2,0.6,3c0.4,0.9,1.1,1.6,1.9,2.1
					C361.4,109.6,362.4,109.8,363.4,109.8z"/>
				<path class="st2" d="M394.2,103.8c0,2.6-0.8,4.5-2.3,5.8c-1.6,1.3-3.9,2-7,2h-5.6v-1.9h2V98.4h-2v-1.9h5.7
					c3.1,0,5.4,0.6,6.9,1.8C393.5,99.4,394.2,101.3,394.2,103.8z M391.7,103.9c0-1.3-0.2-2.3-0.7-3.1c-0.5-0.8-1.2-1.4-2.1-1.8
					c-1-0.4-2.3-0.6-3.9-0.6h-1.5v11.3h1.4c2.3,0,4-0.5,5.1-1.4C391.2,107.4,391.7,105.9,391.7,103.9z"/>
				<path class="st2" d="M410.5,97.4v-1h1.8v4.6h-1.8v-1c-0.8-1.2-1.9-1.8-3.2-1.8c-0.8,0-1.5,0.2-1.9,0.5c-0.4,0.3-0.7,0.8-0.7,1.4
					c0,0.6,0.2,1.1,0.6,1.4c0.4,0.3,1.1,0.6,1.9,0.8l1.8,0.5c1.1,0.3,2,0.7,2.6,1.2c0.6,0.5,1,1,1.2,1.6c0.2,0.6,0.3,1.2,0.3,1.9
					c0,1.4-0.4,2.5-1.3,3.3s-2,1.2-3.4,1.2c-1.4,0-2.6-0.5-3.7-1.5v1.3h-1.9v-5.5h1.9v1.3c0.9,1.7,2.1,2.5,3.5,2.5
					c0.8,0,1.5-0.2,2-0.7c0.5-0.4,0.7-1.1,0.7-1.9c0-1.1-0.8-1.8-2.3-2.3l-1.9-0.5c-1.4-0.4-2.4-0.9-3-1.6c-0.6-0.7-1-1.5-1-2.6
					c0-1.3,0.4-2.4,1.2-3.1c0.8-0.7,1.9-1.1,3.3-1.1C408.3,96.3,409.5,96.7,410.5,97.4z"/>
			</g>
		</g>
		<circle class="st2" cx="71.9" cy="67.6" r="48.9"/>
		<rect x="30.7" y="59.1" class="st3" width="81.1" height="34.2"/>
		<rect x="109.7" y="42.2" class="st4" width="5" height="10.6"/>
		<rect x="108.9" y="39.9" class="st4" width="6.5" height="1.3"/>
		<polygon class="st3" points="21.7,57.5 63.6,36.9 80.6,37.1 120.7,57.4 118.6,58.8 80.6,49.3 59.9,50 23,59.6 		"/>
		<rect x="33.9" y="59.1" class="st5" width="75.2" height="8.8"/>
		<g>
			<rect x="93.6" y="71.9" class="st2" width="10.8" height="10.7"/>
			<rect x="97.4" y="63.4" class="st2" width="3.3" height="7.5"/>
			<rect x="101.3" y="63.4" class="st2" width="3.2" height="7.5"/>
			<rect x="93.6" y="63.4" class="st2" width="3.3" height="7.5"/>
			<rect x="93.5" y="70.9" class="st6" width="0.1" height="1"/>
			<rect x="104.5" y="70.9" class="st6" width="0.1" height="1"/>
		</g>
		<g>
			<path class="st3" d="M28.9,91c1.4,2.5,2.9,4.8,4.7,7h76.6c1.7-2.2,3.3-4.5,4.7-7H28.9z"/>
		</g>
		<path class="st2" d="M87,91.1H76.3c-1.3,0-2.4-1.1-2.4-2.4V64.5c0-1.3,1.1-2.4,2.4-2.4H87c1.3,0,2.4,1.1,2.4,2.4v24.2
			C89.4,90,88.4,91.1,87,91.1z"/>
		<g>
			<rect x="44.8" y="64.7" class="st2" width="14.5" height="18.8"/>
		</g>
		<rect x="62.9" y="43.1" class="st2" width="1.9" height="2.2"/>
		<rect x="65.4" y="43.1" class="st2" width="1.9" height="2.2"/>
		<rect x="67.9" y="43.1" class="st2" width="1.9" height="2.2"/>
		<rect x="62.9" y="46" class="st2" width="1.9" height="2.2"/>
		<rect x="65.4" y="46" class="st2" width="1.9" height="2.2"/>
		<rect x="67.9" y="46" class="st2" width="1.9" height="2.2"/>
		<g>
			<rect x="72.7" y="43.1" class="st2" width="1.9" height="2.2"/>
			<rect x="75.2" y="43.1" class="st2" width="1.9" height="2.2"/>
			<rect x="77.7" y="43.1" class="st2" width="1.9" height="2.2"/>
		</g>
		<g>
			<rect x="72.7" y="46" class="st2" width="1.9" height="2.2"/>
			<rect x="75.2" y="46" class="st2" width="1.9" height="2.2"/>
			<rect x="77.7" y="46" class="st2" width="1.9" height="2.2"/>
		</g>
		<polygon class="st4" points="64.8,80.2 64.8,82 35.1,82 35.1,62.5 28.4,62.5 28.4,89.2 35.1,89.2 35.1,89.5 64.8,89.5 64.8,89.6 
			70.6,89.6 70.6,80.2 		"/>
		<rect x="64.1" y="78.5" class="st4" width="7.3" height="1.7"/>
		<g>
			<polygon class="st4" points="114.3,62.5 107.6,62.5 107.6,82 98.9,82 98.9,80.2 93.2,80.2 93.2,89.8 98.7,89.8 98.9,89.8 
				107.7,89.8 107.7,89.2 114.3,89.2 			"/>
			<polygon class="st4" points="122.1,60.6 79.7,49.7 60.9,49.8 21.9,59.6 20.9,60.6 27.9,60.6 27.9,62.5 35.6,62.5 35.6,60.6 
				107,60.6 107,62.5 114.8,62.5 114.8,60.6 			"/>
		</g>
		<rect x="92.4" y="78.5" class="st4" width="7.3" height="1.7"/>
		<polygon class="st3" points="80.3,50.6 61.6,50.6 21.9,60.5 21.9,60.6 25.9,60.6 61.7,52.8 80.1,52.8 117.9,60.6 121.5,60.6 		"/>
		<path class="st4" d="M125.5,58L79.8,35.2h-8h-8L18.1,58v3l2.5-1.2l0,1l41.1-10.2h18.7l42,10.2v-1.4l3.2,1.6V58z M80.2,47.8H61.5
			l-33.8,8.4l36.1-18.1h8h8l37.4,18.7L80.2,47.8z"/>
		<rect x="27.1" y="89.2" class="st4" width="89" height="1.9"/>
		<rect x="27.6" y="88.9" class="st2" width="88" height="0.4"/>
		<rect x="28.4" y="62.5" class="st7" width="6.7" height="2.1"/>
		<rect x="107.6" y="62.7" class="st7" width="6.7" height="2.1"/>
		<rect x="64.8" y="80.2" class="st3" width="6" height="0.5"/>
		<rect x="93" y="80.2" class="st3" width="6" height="0.5"/>
		<rect x="70.7" y="90.9" class="st4" width="22.7" height="3.6"/>
		<rect x="70.1" y="95.3" class="st4" width="23.9" height="4.6"/>
		<ellipse class="st4" cx="81.8" cy="76.2" rx="4.8" ry="10.3"/>
		<rect x="44.3" y="76.8" class="st3" width="15.6" height="1"/>
		<rect x="42.5" y="109.7" class="st4" width="57.3" height="3.4"/>
		<rect x="38.2" y="104" class="st4" width="71.4" height="1.9"/>
		<rect x="34.9" y="100.6" class="st4" width="74.6" height="0.8"/>
	</g>
</g>
<g id="Layer_2">
	<g>
		<g>
			<g>
				<path class="st8" d="M183.7,61.5c0,4.2-0.8,7.8-2.3,10.9c-1.5,3-3.6,5.5-6.1,7.5c-2.5,2-5.4,3.4-8.5,4.3
					c-3.2,0.9-6.4,1.4-9.6,1.4h-17.7V37.7h17.1c3.3,0,6.6,0.4,9.9,1.2c3.3,0.8,6.2,2.1,8.7,3.9c2.5,1.8,4.6,4.3,6.2,7.3
					C182.9,53.2,183.7,57,183.7,61.5z M171.8,61.5c0-2.7-0.4-4.9-1.3-6.7c-0.9-1.8-2-3.2-3.5-4.3c-1.4-1.1-3.1-1.8-4.9-2.3
					c-1.8-0.5-3.8-0.7-5.7-0.7h-5.7v28h5.4c2,0,4-0.2,5.9-0.7c1.9-0.5,3.6-1.3,5-2.3c1.4-1.1,2.6-2.5,3.5-4.3
					C171.4,66.4,171.8,64.2,171.8,61.5z"/>
				<path class="st8" d="M220.6,85.6l-3.7-9.4h-18.3l-3.5,9.4h-12.4l19.9-47.9h11.1l19.7,47.9H220.6z M207.9,50.5l-6,16.4h11.9
					L207.9,50.5z"/>
				<path class="st8" d="M253.9,65.3v20.3h-11.4V65.3l-17.8-27.6h13.8l10.1,17.7l10.1-17.7h13.4L253.9,65.3z"/>
				<path class="st8" d="M296.9,47.6v38h-11.4v-38h-13.4v-9.9h38.2v9.9H296.9z"/>
				<path class="st8" d="M362.4,61.5c0,3.8-0.6,7.3-1.9,10.4c-1.3,3.1-3.1,5.8-5.4,8.1c-2.3,2.2-5,4-8.2,5.2
					c-3.2,1.2-6.6,1.8-10.3,1.8c-3.7,0-7.1-0.6-10.3-1.8c-3.1-1.2-5.9-2.9-8.2-5.2c-2.3-2.2-4.1-4.9-5.4-8.1
					c-1.3-3.1-1.9-6.6-1.9-10.4c0-3.8,0.6-7.3,1.9-10.4c1.3-3.1,3.1-5.7,5.4-7.9c2.3-2.2,5-3.8,8.2-5c3.1-1.2,6.6-1.8,10.3-1.8
					c3.7,0,7.1,0.6,10.3,1.8c3.2,1.2,5.9,2.8,8.2,5c2.3,2.2,4.1,4.8,5.4,7.9C361.7,54.2,362.4,57.6,362.4,61.5z M350.2,61.5
					c0-2.1-0.3-4-1-5.8c-0.7-1.8-1.6-3.3-2.8-4.6c-1.2-1.3-2.6-2.3-4.3-3c-1.7-0.7-3.5-1.1-5.5-1.1c-2,0-3.8,0.4-5.5,1.1
					c-1.6,0.7-3.1,1.8-4.3,3c-1.2,1.3-2.1,2.8-2.8,4.6c-0.6,1.8-1,3.7-1,5.8c0,2.2,0.3,4.2,1,6c0.7,1.8,1.6,3.4,2.8,4.7
					c1.2,1.3,2.6,2.3,4.2,3.1c1.6,0.7,3.5,1.1,5.5,1.1c2,0,3.8-0.4,5.5-1.1c1.6-0.7,3.1-1.8,4.3-3.1c1.2-1.3,2.1-2.9,2.8-4.7
					C349.8,65.6,350.2,63.6,350.2,61.5z"/>
				<path class="st8" d="M398.9,85.6l-19.1-31.3h-0.2l0.3,31.3h-11.1V37.7h13l19,31.3h0.2l-0.3-31.3h11.1v47.9H398.9z"/>
			</g>
			<g>
				<path class="st8" d="M153,98.1h-2.1v-1.9h6.1v1.9h-2.2v13.3h-2.3l-7.2-12.8v10.8h2.1v1.9h-6.1v-1.9h2.1V98.1h-2.1v-1.9h5.1
					l6.6,11.6V98.1z"/>
				<path class="st8" d="M175,100.6v-2.5h-6.4v4.5h5.6v1.9h-5.6v4.9h6.4v-2.7h1.8v4.6h-12.4v-1.9h1.9V98.1h-1.9v-1.9h12.4v4.4H175z"
					/>
				<path class="st8" d="M190.2,98.1v11.2h1.6v1.9h-5.5v-1.9h1.6V98.1h-1.6v-1.9h5.5v1.9H190.2z"/>
				<path class="st8" d="M211.6,97.9v-1.6h1.9v4.9h-1.9c-0.4-1-1.1-1.7-2.1-2.3c-0.9-0.6-1.9-0.9-3-0.9c-1,0-2,0.2-2.8,0.7
					c-0.8,0.5-1.4,1.2-1.9,2c-0.4,0.9-0.7,1.8-0.7,2.9c0,1.1,0.2,2.1,0.7,3c0.5,0.9,1.1,1.6,2,2.1c0.8,0.5,1.8,0.7,2.9,0.7
					c0.8,0,1.6-0.1,2.3-0.4c0.7-0.3,1.3-0.7,1.7-1.3c0.5-0.5,0.7-1.2,0.9-1.9h-2.8v-1.9h5.5v0.5c0,1.4-0.3,2.7-1,3.7
					c-0.6,1.1-1.5,1.9-2.7,2.4c-1.1,0.6-2.4,0.8-3.8,0.8c-1.6,0-3-0.3-4.3-1c-1.2-0.7-2.2-1.6-2.8-2.7c-0.7-1.2-1-2.5-1-4.1
					c0-1.5,0.3-2.8,1-4c0.7-1.2,1.6-2.1,2.7-2.7c1.1-0.7,2.4-1,3.9-1C208.4,96,210.1,96.6,211.6,97.9z"/>
				<path class="st8" d="M226.5,98.1v4.2h6.5v-4.2h-1.7v-1.9h5.7v1.9h-1.7v11.2h1.7v1.9h-5.7v-1.9h1.7v-5.1h-6.5v5.1h1.8v1.9h-5.7
					v-1.9h1.7V98.1h-1.7v-1.9h5.7v1.9H226.5z"/>
				<path class="st8" d="M256.6,100.1c0,0.7-0.2,1.3-0.5,1.9c-0.3,0.5-0.8,0.9-1.4,1.2c0.8,0.3,1.5,0.8,1.9,1.4
					c0.4,0.6,0.7,1.4,0.7,2.2c0,1.4-0.5,2.5-1.6,3.3c-1,0.7-2.6,1.1-4.7,1.1H246v-1.9h1.8V98.1H246v-1.9h5.3c1.8,0,3.2,0.3,4.1,1
					S256.6,98.8,256.6,100.1z M254.4,100.2c0-0.7-0.2-1.2-0.7-1.6c-0.5-0.4-1.2-0.5-2.1-0.5h-1.5v4.4h1.5
					C253.4,102.4,254.4,101.7,254.4,100.2z M255.1,106.8c0-0.8-0.3-1.4-0.9-1.9c-0.6-0.4-1.5-0.6-2.7-0.6h-1.4v5h0.9
					c0.9,0,1.6-0.1,2.2-0.2c0.6-0.1,1-0.3,1.4-0.7C254.9,108.1,255.1,107.5,255.1,106.8z"/>
				<path class="st8" d="M279.9,103.6c0,1.5-0.3,2.9-1,4.1c-0.7,1.2-1.6,2.1-2.8,2.7c-1.2,0.6-2.5,1-4,1c-1.5,0-2.8-0.3-4-1
					c-1.2-0.7-2.1-1.6-2.7-2.8c-0.6-1.2-1-2.5-1-4c0-1.5,0.3-2.8,1-4c0.7-1.2,1.6-2.1,2.7-2.7c1.2-0.7,2.5-1,4-1
					c1.5,0,2.9,0.3,4.1,1c1.2,0.7,2.1,1.6,2.8,2.8C279.6,100.9,279.9,102.2,279.9,103.6z M272.1,109.4c1,0,1.9-0.3,2.7-0.8
					c0.8-0.5,1.4-1.2,1.9-2.1c0.4-0.9,0.7-1.8,0.7-2.8c0-1-0.2-2-0.7-2.9c-0.5-0.9-1.1-1.6-1.9-2.1c-0.8-0.5-1.7-0.8-2.8-0.8
					c-1,0-1.9,0.2-2.7,0.7c-0.8,0.5-1.4,1.2-1.8,2c-0.4,0.9-0.6,1.8-0.6,2.9c0,1.1,0.2,2.1,0.6,3c0.4,0.9,1,1.6,1.8,2.1
					S271.1,109.4,272.1,109.4z"/>
				<path class="st8" d="M299.5,100.1c0,1-0.3,1.8-0.8,2.4c-0.5,0.7-1.3,1.1-2.3,1.3l2.6,5.4h1.8v1.9h-3.4l-3.3-7h-2.1v5.1h1.9v1.9
					h-6.2v-1.9h2V98.1h-2v-1.9h6.2c1.9,0,3.3,0.3,4.2,0.9C299,97.8,299.5,98.8,299.5,100.1z M297.1,100.1c0-0.7-0.2-1.2-0.7-1.5
					c-0.4-0.3-1.1-0.5-2.1-0.5h-2.3v4.2h2.2c1,0,1.7-0.2,2.2-0.5C296.9,101.5,297.1,100.9,297.1,100.1z"/>
				<path class="st8" d="M313.6,98.1v4.2h6.5v-4.2h-1.7v-1.9h5.7v1.9h-1.7v11.2h1.7v1.9h-5.7v-1.9h1.7v-5.1h-6.5v5.1h1.8v1.9h-5.7
					v-1.9h1.7V98.1h-1.7v-1.9h5.7v1.9H313.6z"/>
				<path class="st8" d="M347.8,103.6c0,1.5-0.3,2.9-1,4.1c-0.7,1.2-1.6,2.1-2.8,2.7c-1.2,0.6-2.5,1-4,1c-1.5,0-2.8-0.3-4-1
					c-1.2-0.7-2.1-1.6-2.7-2.8c-0.6-1.2-1-2.5-1-4c0-1.5,0.3-2.8,1-4c0.7-1.2,1.6-2.1,2.7-2.7c1.2-0.7,2.5-1,4-1
					c1.5,0,2.9,0.3,4.1,1c1.2,0.7,2.1,1.6,2.8,2.8C347.5,100.9,347.8,102.2,347.8,103.6z M340.1,109.4c1,0,1.9-0.3,2.7-0.8
					c0.8-0.5,1.4-1.2,1.9-2.1c0.4-0.9,0.7-1.8,0.7-2.8c0-1-0.2-2-0.7-2.9c-0.5-0.9-1.1-1.6-1.9-2.1c-0.8-0.5-1.7-0.8-2.8-0.8
					c-1,0-1.9,0.2-2.7,0.7c-0.8,0.5-1.4,1.2-1.8,2c-0.4,0.9-0.6,1.8-0.6,2.9c0,1.1,0.2,2.1,0.6,3c0.4,0.9,1,1.6,1.8,2.1
					S339,109.4,340.1,109.4z"/>
				<path class="st8" d="M370.6,103.6c0,1.5-0.3,2.9-1,4.1c-0.7,1.2-1.6,2.1-2.8,2.7c-1.2,0.6-2.5,1-4,1c-1.5,0-2.8-0.3-4-1
					c-1.2-0.7-2.1-1.6-2.7-2.8c-0.6-1.2-1-2.5-1-4c0-1.5,0.3-2.8,1-4c0.7-1.2,1.6-2.1,2.7-2.7c1.2-0.7,2.5-1,4-1
					c1.5,0,2.9,0.3,4.1,1c1.2,0.7,2.1,1.6,2.8,2.8C370.3,100.9,370.6,102.2,370.6,103.6z M362.9,109.4c1,0,1.9-0.3,2.7-0.8
					c0.8-0.5,1.4-1.2,1.9-2.1c0.4-0.9,0.7-1.8,0.7-2.8c0-1-0.2-2-0.7-2.9c-0.5-0.9-1.1-1.6-1.9-2.1c-0.8-0.5-1.7-0.8-2.8-0.8
					c-1,0-1.9,0.2-2.7,0.7c-0.8,0.5-1.4,1.2-1.8,2c-0.4,0.9-0.6,1.8-0.6,2.9c0,1.1,0.2,2.1,0.6,3c0.4,0.9,1,1.6,1.8,2.1
					S361.8,109.4,362.9,109.4z"/>
				<path class="st8" d="M393.4,103.5c0,2.6-0.8,4.5-2.3,5.8c-1.5,1.3-3.8,1.9-6.9,1.9h-5.6v-1.9h2V98.1h-2v-1.9h5.7
					c3.1,0,5.3,0.6,6.9,1.7C392.6,99.1,393.4,100.9,393.4,103.5z M390.9,103.6c0-1.3-0.2-2.3-0.7-3.1c-0.4-0.8-1.2-1.4-2.1-1.8
					c-1-0.4-2.2-0.6-3.8-0.6h-1.4v11.2h1.4c2.3,0,4-0.5,5.1-1.4C390.4,107,390.9,105.5,390.9,103.6z"/>
				<path class="st8" d="M409.5,97.1v-1h1.8v4.5h-1.8v-1c-0.8-1.2-1.8-1.7-3.2-1.7c-0.8,0-1.4,0.2-1.9,0.5c-0.4,0.3-0.7,0.8-0.7,1.4
					c0,0.6,0.2,1,0.6,1.4c0.4,0.3,1,0.6,1.9,0.8l1.8,0.5c1.1,0.3,2,0.7,2.6,1.2c0.6,0.5,1,1,1.2,1.6c0.2,0.6,0.3,1.2,0.3,1.8
					c0,1.4-0.4,2.4-1.3,3.2c-0.8,0.8-2,1.2-3.4,1.2c-1.4,0-2.6-0.5-3.7-1.5v1.2h-1.9v-5.5h1.9v1.3c0.9,1.6,2.1,2.5,3.5,2.5
					c0.8,0,1.5-0.2,2-0.7c0.5-0.4,0.7-1,0.7-1.8c0-1.1-0.8-1.8-2.3-2.2l-1.9-0.5c-1.3-0.4-2.3-0.9-3-1.6c-0.6-0.7-1-1.5-1-2.6
					c0-1.3,0.4-2.3,1.2-3.1c0.8-0.7,1.9-1.1,3.2-1.1C407.4,96,408.5,96.4,409.5,97.1z"/>
			</g>
		</g>
		<circle class="st8" cx="74.2" cy="67.5" r="48.5"/>
		<rect x="33.5" y="59.1" class="st9" width="80.3" height="33.8"/>
		<rect x="111.6" y="42.5" class="st4" width="4.9" height="10.4"/>
		<rect x="110.8" y="40.2" class="st4" width="6.4" height="1.3"/>
		<polygon class="st9" points="24.5,57.5 66,37.2 82.9,37.4 122.6,57.5 120.5,58.9 82.8,49.5 62.3,50.1 25.8,59.7 		"/>
		<rect x="36.6" y="59.2" class="st10" width="74.5" height="8.7"/>
		<g>
			<rect x="95.7" y="71.9" class="st8" width="10.7" height="10.6"/>
			<rect x="99.5" y="63.4" class="st8" width="3.3" height="7.4"/>
			<rect x="103.3" y="63.4" class="st8" width="3.1" height="7.4"/>
			<rect x="95.7" y="63.4" class="st8" width="3.2" height="7.4"/>
		</g>
		<g>
			<path class="st9" d="M31.7,90.8c1.3,2.4,2.9,4.8,4.6,6.9h75.9c1.7-2.2,3.3-4.5,4.6-6.9H31.7z"/>
		</g>
		<path class="st8" d="M89.2,90.9H78.7c-1.3,0-2.4-1.1-2.4-2.4V64.6c0-1.3,1.1-2.4,2.4-2.4h10.5c1.3,0,2.4,1.1,2.4,2.4v23.9
			C91.6,89.8,90.5,90.9,89.2,90.9z"/>
		<g>
			<rect x="47.4" y="64.7" class="st8" width="14.3" height="18.6"/>
		</g>
		<rect x="65.3" y="43.4" class="st8" width="1.9" height="2.2"/>
		<rect x="67.8" y="43.4" class="st8" width="1.9" height="2.2"/>
		<rect x="70.3" y="43.4" class="st8" width="1.9" height="2.2"/>
		<rect x="65.3" y="46.2" class="st8" width="1.9" height="2.2"/>
		<rect x="67.8" y="46.2" class="st8" width="1.9" height="2.2"/>
		<rect x="70.3" y="46.2" class="st8" width="1.9" height="2.2"/>
		<g>
			<rect x="75" y="43.4" class="st8" width="1.9" height="2.2"/>
			<rect x="77.5" y="43.4" class="st8" width="1.9" height="2.2"/>
			<rect x="80" y="43.4" class="st8" width="1.9" height="2.2"/>
		</g>
		<g>
			<rect x="75" y="46.2" class="st8" width="1.9" height="2.2"/>
			<rect x="77.5" y="46.2" class="st8" width="1.9" height="2.2"/>
			<rect x="80" y="46.2" class="st8" width="1.9" height="2.2"/>
		</g>
		<polygon class="st4" points="67.3,80 67.3,81.9 37.8,81.9 37.8,62.6 31.2,62.6 31.2,88.9 37.8,88.9 37.8,89.3 67.3,89.3 
			67.3,89.4 73,89.4 73,80 		"/>
		<rect x="66.5" y="78.4" class="st4" width="7.2" height="1.7"/>
		<g>
			<polygon class="st4" points="116.2,62.6 109.5,62.6 109.5,81.9 101,81.9 101,80 95.3,80 95.3,89.6 100.7,89.6 101,89.6 
				109.6,89.6 109.6,88.9 116.2,88.9 			"/>
			<polygon class="st4" points="124,60.6 82,49.9 63.4,49.9 24.7,59.7 23.7,60.6 30.6,60.6 30.6,62.6 38.3,62.6 38.3,60.6 109,60.6 
				109,62.6 116.7,62.6 116.7,60.6 			"/>
		</g>
		<rect x="94.5" y="78.4" class="st4" width="7.2" height="1.7"/>
		<polygon class="st9" points="82.6,50.8 64.1,50.8 24.7,60.5 24.7,60.6 28.7,60.6 64.2,52.9 82.3,52.9 119.8,60.6 123.4,60.6 		"/>
		<path class="st4" d="M127.4,58.1L82.1,35.5h-7.9h-7.9L21,58.1v3l2.4-1.2l0,1l40.7-10.1h18.5l41.6,10.1v-1.3l3.2,1.6V58.1z
			 M82.5,48H64l-33.5,8.3l35.8-17.9h7.9h7.9l37,18.5L82.5,48z"/>
		<rect x="29.9" y="88.9" class="st4" width="88.2" height="1.8"/>
		<rect x="30.4" y="88.6" class="st8" width="87.1" height="0.4"/>
		<rect x="31.2" y="62.6" class="st10" width="6.6" height="2.1"/>
		<rect x="109.3" y="62.7" class="st10" width="6.9" height="2.1"/>
		<rect x="67.2" y="80.1" class="st9" width="5.9" height="0.5"/>
		<rect x="95.1" y="80.1" class="st9" width="5.9" height="0.5"/>
		<rect x="73.1" y="90.6" class="st4" width="22.5" height="3.6"/>
		<rect x="72.5" y="95" class="st4" width="23.7" height="4.5"/>
		<ellipse class="st4" cx="84" cy="76.1" rx="4.7" ry="10.2"/>
		<rect x="46.9" y="76.7" class="st9" width="15.5" height="1"/>
		<rect x="45.1" y="109.3" class="st4" width="56.7" height="3.3"/>
		<rect x="40.9" y="103.6" class="st4" width="70.7" height="1.9"/>
		<rect x="37.6" y="100.3" class="st4" width="73.8" height="0.8"/>
	</g>
</g>
</svg>
