<?xml version="1.0" encoding="utf-8"?>
<!-- Generator: Adobe Illustrator 24.0.3, SVG Export Plug-In . SVG Version: 6.00 Build 0)  -->
<svg version="1.1" id="Layer_1" xmlns="http://www.w3.org/2000/svg" xmlns:xlink="http://www.w3.org/1999/xlink" x="0px" y="0px"
	 viewBox="0 0 440.6 146.4" style="enable-background:new 0 0 440.6 146.4;" xml:space="preserve">
<style type="text/css">
	.st0{fill:#3C828B;}
	.st1{fill:#CEDDEB;}
	.st2{fill:#FFFFFF;}
	.st3{opacity:0.4;fill:#34536D;}
	.st4{fill:#B7BDD7;}
	.st5{fill:#91A6B8;}
</style>
<g>
	<g>
		<g>
			<path class="st0" d="M182.4,61.5c0,4.2-0.8,7.9-2.3,11c-1.6,3.1-3.6,5.6-6.1,7.6c-2.5,2-5.4,3.4-8.6,4.4
				c-3.2,0.9-6.4,1.4-9.7,1.4h-17.8V37.4h17.3c3.4,0,6.7,0.4,10,1.2c3.3,0.8,6.2,2.1,8.8,4c2.6,1.8,4.6,4.3,6.2,7.4
				C181.7,53.1,182.4,56.9,182.4,61.5z M170.4,61.5c0-2.7-0.4-5-1.3-6.8c-0.9-1.8-2-3.2-3.5-4.3c-1.5-1.1-3.1-1.8-5-2.3
				c-1.9-0.5-3.8-0.7-5.8-0.7h-5.7v28.3h5.5c2.1,0,4.1-0.2,6-0.7c1.9-0.5,3.6-1.3,5.1-2.4c1.5-1.1,2.6-2.6,3.5-4.4
				C170,66.4,170.4,64.2,170.4,61.5z"/>
			<path class="st0" d="M219.7,85.8l-3.7-9.5h-18.5l-3.5,9.5h-12.6l20.1-48.4h11.2l19.9,48.4H219.7z M206.9,50.4L200.8,67h12
				L206.9,50.4z"/>
			<path class="st0" d="M253.4,65.3v20.5h-11.5V65.3l-18-27.9h14L248,55.3l10.2-17.9h13.5L253.4,65.3z"/>
			<path class="st0" d="M296.8,47.4v38.4h-11.5V47.4h-13.5v-10h38.6v10H296.8z"/>
			<path class="st0" d="M362.9,61.4c0,3.8-0.7,7.3-2,10.5c-1.3,3.2-3.1,5.9-5.4,8.1c-2.3,2.3-5.1,4-8.3,5.2
				c-3.2,1.2-6.7,1.8-10.4,1.8c-3.7,0-7.2-0.6-10.4-1.8c-3.2-1.2-5.9-3-8.2-5.2c-2.3-2.3-4.1-5-5.4-8.1c-1.3-3.2-2-6.7-2-10.5
				c0-3.9,0.7-7.4,2-10.5c1.3-3.1,3.1-5.8,5.4-8c2.3-2.2,5.1-3.9,8.2-5.1c3.2-1.2,6.6-1.8,10.4-1.8c3.7,0,7.2,0.6,10.4,1.8
				c3.2,1.2,6,2.9,8.3,5.1c2.3,2.2,4.1,4.8,5.4,8C362.3,54.1,362.9,57.6,362.9,61.4z M350.6,61.4c0-2.1-0.3-4.1-1-5.9
				c-0.7-1.8-1.6-3.4-2.8-4.7c-1.2-1.3-2.6-2.3-4.3-3.1c-1.7-0.8-3.5-1.1-5.6-1.1c-2,0-3.9,0.4-5.5,1.1c-1.7,0.8-3.1,1.8-4.3,3.1
				c-1.2,1.3-2.2,2.9-2.8,4.7c-0.7,1.8-1,3.8-1,5.9c0,2.2,0.3,4.2,1,6c0.7,1.8,1.6,3.4,2.8,4.7c1.2,1.3,2.6,2.4,4.3,3.1
				c1.7,0.8,3.5,1.1,5.5,1.1c2,0,3.9-0.4,5.5-1.1c1.7-0.8,3.1-1.8,4.3-3.1c1.2-1.3,2.2-2.9,2.8-4.7
				C350.2,65.6,350.6,63.6,350.6,61.4z"/>
			<path class="st0" d="M399.8,85.8l-19.2-31.6h-0.2l0.3,31.6h-11.2V37.4h13.2L401.7,69h0.2l-0.3-31.6h11.2v48.4H399.8z"/>
		</g>
		<g>
			<path class="st0" d="M151.4,98.4h-2.2v-1.9h6.2v1.9h-2.2v13.4h-2.3l-7.3-12.9v10.9h2.2v1.9h-6.2v-1.9h2.2V98.4h-2.2v-1.9h5.2
				l6.6,11.7V98.4z"/>
			<path class="st0" d="M173.7,100.9v-2.5h-6.5v4.5h5.6v1.9h-5.6v5h6.5V107h1.9v4.6H163v-1.9h1.9V98.4H163v-1.9h12.6v4.4H173.7z"/>
			<path class="st0" d="M189,98.4v11.3h1.6v1.9H185v-1.9h1.6V98.4H185v-1.9h5.6v1.9H189z"/>
			<path class="st0" d="M210.6,98.2v-1.7h1.9v5h-1.9c-0.4-1-1.1-1.7-2.1-2.3c-1-0.6-2-0.9-3-0.9c-1,0-2,0.2-2.8,0.7
				c-0.8,0.5-1.4,1.2-1.9,2c-0.5,0.9-0.7,1.8-0.7,2.9c0,1.1,0.2,2.2,0.7,3.1c0.5,0.9,1.1,1.6,2,2.1c0.8,0.5,1.8,0.7,2.9,0.7
				c0.8,0,1.6-0.1,2.3-0.5c0.7-0.3,1.3-0.7,1.8-1.3c0.5-0.6,0.8-1.2,0.9-1.9h-2.8v-1.9h5.5v0.5c0,1.4-0.3,2.7-1,3.8
				c-0.7,1.1-1.6,1.9-2.7,2.5c-1.2,0.6-2.4,0.9-3.9,0.9c-1.6,0-3.1-0.3-4.3-1c-1.2-0.7-2.2-1.6-2.8-2.8c-0.7-1.2-1-2.6-1-4.1
				c0-1.5,0.3-2.8,1-4c0.7-1.2,1.6-2.1,2.7-2.8c1.2-0.7,2.5-1,3.9-1C207.4,96.3,209.2,96.9,210.6,98.2z"/>
			<path class="st0" d="M225.7,98.4v4.3h6.6v-4.3h-1.8v-1.9h5.8v1.9h-1.7v11.3h1.7v1.9h-5.8v-1.9h1.8v-5.2h-6.6v5.2h1.8v1.9h-5.8
				v-1.9h1.7V98.4h-1.7v-1.9h5.8v1.9H225.7z"/>
			<path class="st0" d="M256.1,100.4c0,0.7-0.2,1.3-0.5,1.9c-0.3,0.5-0.8,1-1.4,1.2c0.8,0.3,1.5,0.8,2,1.4c0.5,0.6,0.7,1.4,0.7,2.3
				c0,1.4-0.5,2.5-1.6,3.3c-1.1,0.8-2.6,1.1-4.7,1.1h-5.2v-1.9h1.9V98.4h-1.9v-1.9h5.3c1.8,0,3.2,0.3,4.1,1S256.1,99.1,256.1,100.4z
				 M253.8,100.5c0-0.7-0.3-1.2-0.8-1.6c-0.5-0.4-1.2-0.5-2.1-0.5h-1.5v4.4h1.5C252.9,102.8,253.8,102,253.8,100.5z M254.6,107.2
				c0-0.8-0.3-1.5-0.9-1.9c-0.6-0.4-1.5-0.6-2.8-0.6h-1.5v5.1h0.9c0.9,0,1.6-0.1,2.2-0.2c0.6-0.1,1.1-0.4,1.4-0.7
				C254.4,108.5,254.6,107.9,254.6,107.2z"/>
			<path class="st0" d="M279.6,104c0,1.5-0.3,2.9-1,4.1c-0.7,1.2-1.6,2.1-2.8,2.8c-1.2,0.7-2.6,1-4.1,1c-1.5,0-2.8-0.3-4-1
				c-1.2-0.7-2.1-1.6-2.7-2.8c-0.7-1.2-1-2.6-1-4.1c0-1.5,0.3-2.8,1-4c0.7-1.2,1.6-2.1,2.8-2.7c1.2-0.7,2.5-1,4-1
				c1.6,0,2.9,0.3,4.1,1c1.2,0.7,2.1,1.6,2.8,2.8C279.3,101.2,279.6,102.5,279.6,104z M271.8,109.8c1,0,2-0.3,2.8-0.8
				c0.8-0.5,1.4-1.3,1.9-2.2c0.4-0.9,0.7-1.9,0.7-2.9c0-1-0.2-2-0.7-2.9c-0.5-0.9-1.1-1.6-2-2.1c-0.8-0.5-1.8-0.8-2.8-0.8
				c-1,0-1.9,0.2-2.7,0.7c-0.8,0.5-1.4,1.2-1.8,2.1c-0.4,0.9-0.6,1.8-0.6,2.9c0,1.1,0.2,2.2,0.6,3c0.4,0.9,1.1,1.6,1.9,2.1
				C269.8,109.6,270.7,109.8,271.8,109.8z"/>
			<path class="st0" d="M299.4,100.5c0,1-0.3,1.8-0.8,2.4c-0.5,0.7-1.3,1.1-2.3,1.4l2.7,5.5h1.8v1.9h-3.4l-3.3-7h-2.1v5.2h1.9v1.9
				h-6.3v-1.9h2V98.4h-2v-1.9h6.3c1.9,0,3.3,0.3,4.2,1C298.9,98.1,299.4,99.1,299.4,100.5z M297,100.4c0-0.7-0.2-1.2-0.7-1.5
				c-0.4-0.3-1.1-0.5-2.1-0.5h-2.3v4.3h2.2c1,0,1.7-0.2,2.2-0.5C296.8,101.8,297,101.2,297,100.4z"/>
			<path class="st0" d="M313.7,98.4v4.3h6.6v-4.3h-1.8v-1.9h5.8v1.9h-1.7v11.3h1.7v1.9h-5.8v-1.9h1.8v-5.2h-6.6v5.2h1.8v1.9h-5.8
				v-1.9h1.7V98.4h-1.7v-1.9h5.8v1.9H313.7z"/>
			<path class="st0" d="M348.2,104c0,1.5-0.3,2.9-1,4.1c-0.7,1.2-1.6,2.1-2.8,2.8c-1.2,0.7-2.6,1-4.1,1c-1.5,0-2.8-0.3-4-1
				c-1.2-0.7-2.1-1.6-2.7-2.8c-0.7-1.2-1-2.6-1-4.1c0-1.5,0.3-2.8,1-4c0.7-1.2,1.6-2.1,2.8-2.7c1.2-0.7,2.5-1,4-1
				c1.6,0,2.9,0.3,4.1,1c1.2,0.7,2.1,1.6,2.8,2.8C347.9,101.2,348.2,102.5,348.2,104z M340.4,109.8c1,0,2-0.3,2.8-0.8
				c0.8-0.5,1.4-1.3,1.9-2.2c0.4-0.9,0.7-1.9,0.7-2.9c0-1-0.2-2-0.7-2.9c-0.5-0.9-1.1-1.6-2-2.1c-0.8-0.5-1.8-0.8-2.8-0.8
				c-1,0-1.9,0.2-2.7,0.7c-0.8,0.5-1.4,1.2-1.8,2.1c-0.4,0.9-0.6,1.8-0.6,2.9c0,1.1,0.2,2.2,0.6,3c0.4,0.9,1.1,1.6,1.9,2.1
				C338.4,109.6,339.3,109.8,340.4,109.8z"/>
			<path class="st0" d="M371.3,104c0,1.5-0.3,2.9-1,4.1c-0.7,1.2-1.6,2.1-2.8,2.8c-1.2,0.7-2.6,1-4.1,1c-1.5,0-2.8-0.3-4-1
				c-1.2-0.7-2.1-1.6-2.7-2.8c-0.7-1.2-1-2.6-1-4.1c0-1.5,0.3-2.8,1-4c0.7-1.2,1.6-2.1,2.8-2.7c1.2-0.7,2.5-1,4-1
				c1.6,0,2.9,0.3,4.1,1c1.2,0.7,2.1,1.6,2.8,2.8C370.9,101.2,371.3,102.5,371.3,104z M363.4,109.8c1,0,2-0.3,2.8-0.8
				c0.8-0.5,1.4-1.3,1.9-2.2c0.4-0.9,0.7-1.9,0.7-2.9c0-1-0.2-2-0.7-2.9c-0.5-0.9-1.1-1.6-2-2.1c-0.8-0.5-1.8-0.8-2.8-0.8
				c-1,0-1.9,0.2-2.7,0.7c-0.8,0.5-1.4,1.2-1.8,2.1c-0.4,0.9-0.6,1.8-0.6,2.9c0,1.1,0.2,2.2,0.6,3c0.4,0.9,1.1,1.6,1.9,2.1
				C361.4,109.6,362.4,109.8,363.4,109.8z"/>
			<path class="st0" d="M394.2,103.8c0,2.6-0.8,4.5-2.3,5.8c-1.6,1.3-3.9,2-7,2h-5.6v-1.9h2V98.4h-2v-1.9h5.7c3.1,0,5.4,0.6,6.9,1.8
				C393.5,99.4,394.2,101.3,394.2,103.8z M391.7,103.9c0-1.3-0.2-2.3-0.7-3.1c-0.5-0.8-1.2-1.4-2.1-1.8c-1-0.4-2.3-0.6-3.9-0.6h-1.5
				v11.3h1.4c2.3,0,4-0.5,5.1-1.4C391.2,107.4,391.7,105.9,391.7,103.9z"/>
			<path class="st0" d="M410.5,97.4v-1h1.8v4.6h-1.8v-1c-0.8-1.2-1.9-1.8-3.2-1.8c-0.8,0-1.5,0.2-1.9,0.5c-0.4,0.3-0.7,0.8-0.7,1.4
				c0,0.6,0.2,1.1,0.6,1.4c0.4,0.3,1.1,0.6,1.9,0.8l1.8,0.5c1.1,0.3,2,0.7,2.6,1.2c0.6,0.5,1,1,1.2,1.6c0.2,0.6,0.3,1.2,0.3,1.9
				c0,1.4-0.4,2.5-1.3,3.3s-2,1.2-3.4,1.2c-1.4,0-2.6-0.5-3.7-1.5v1.3h-1.9v-5.5h1.9v1.3c0.9,1.7,2.1,2.5,3.5,2.5
				c0.8,0,1.5-0.2,2-0.7c0.5-0.4,0.7-1.1,0.7-1.9c0-1.1-0.8-1.8-2.3-2.3l-1.9-0.5c-1.4-0.4-2.4-0.9-3-1.6c-0.6-0.7-1-1.5-1-2.6
				c0-1.3,0.4-2.4,1.2-3.1c0.8-0.7,1.9-1.1,3.3-1.1C408.3,96.3,409.5,96.7,410.5,97.4z"/>
		</g>
	</g>
	<circle class="st0" cx="71.9" cy="67.6" r="48.9"/>
	<rect x="30.7" y="59.1" class="st1" width="81.1" height="34.2"/>
	<rect x="109.7" y="42.2" class="st2" width="5" height="10.6"/>
	<rect x="108.9" y="39.9" class="st2" width="6.5" height="1.3"/>
	<polygon class="st1" points="21.7,57.5 63.6,36.9 80.6,37.1 120.7,57.4 118.6,58.8 80.6,49.3 59.9,50 23,59.6 	"/>
	<rect x="33.9" y="59.1" class="st3" width="75.2" height="8.8"/>
	<g>
		<rect x="93.6" y="71.9" class="st0" width="10.8" height="10.7"/>
		<rect x="97.4" y="63.4" class="st0" width="3.3" height="7.5"/>
		<rect x="101.3" y="63.4" class="st0" width="3.2" height="7.5"/>
		<rect x="93.6" y="63.4" class="st0" width="3.3" height="7.5"/>
		<rect x="93.5" y="70.9" class="st4" width="0.1" height="1"/>
		<rect x="104.5" y="70.9" class="st4" width="0.1" height="1"/>
	</g>
	<g>
		<path class="st1" d="M28.9,91c1.4,2.5,2.9,4.8,4.7,7h76.6c1.7-2.2,3.3-4.5,4.7-7H28.9z"/>
	</g>
	<path class="st0" d="M87,91.1H76.3c-1.3,0-2.4-1.1-2.4-2.4V64.5c0-1.3,1.1-2.4,2.4-2.4H87c1.3,0,2.4,1.1,2.4,2.4v24.2
		C89.4,90,88.4,91.1,87,91.1z"/>
	<g>
		<rect x="44.8" y="64.7" class="st0" width="14.5" height="18.8"/>
	</g>
	<rect x="62.9" y="43.1" class="st0" width="1.9" height="2.2"/>
	<rect x="65.4" y="43.1" class="st0" width="1.9" height="2.2"/>
	<rect x="67.9" y="43.1" class="st0" width="1.9" height="2.2"/>
	<rect x="62.9" y="46" class="st0" width="1.9" height="2.2"/>
	<rect x="65.4" y="46" class="st0" width="1.9" height="2.2"/>
	<rect x="67.9" y="46" class="st0" width="1.9" height="2.2"/>
	<g>
		<rect x="72.7" y="43.1" class="st0" width="1.9" height="2.2"/>
		<rect x="75.2" y="43.1" class="st0" width="1.9" height="2.2"/>
		<rect x="77.7" y="43.1" class="st0" width="1.9" height="2.2"/>
	</g>
	<g>
		<rect x="72.7" y="46" class="st0" width="1.9" height="2.2"/>
		<rect x="75.2" y="46" class="st0" width="1.9" height="2.2"/>
		<rect x="77.7" y="46" class="st0" width="1.9" height="2.2"/>
	</g>
	<polygon class="st2" points="64.8,80.2 64.8,82 35.1,82 35.1,62.5 28.4,62.5 28.4,89.2 35.1,89.2 35.1,89.5 64.8,89.5 64.8,89.6 
		70.6,89.6 70.6,80.2 	"/>
	<rect x="64.1" y="78.5" class="st2" width="7.3" height="1.7"/>
	<g>
		<polygon class="st2" points="114.3,62.5 107.6,62.5 107.6,82 98.9,82 98.9,80.2 93.2,80.2 93.2,89.8 98.7,89.8 98.9,89.8 
			107.7,89.8 107.7,89.2 114.3,89.2 		"/>
		<polygon class="st2" points="122.1,60.6 79.7,49.7 60.9,49.8 21.9,59.6 20.9,60.6 27.9,60.6 27.9,62.5 35.6,62.5 35.6,60.6 
			107,60.6 107,62.5 114.8,62.5 114.8,60.6 		"/>
	</g>
	<rect x="92.4" y="78.5" class="st2" width="7.3" height="1.7"/>
	<polygon class="st1" points="80.3,50.6 61.6,50.6 21.9,60.5 21.9,60.6 25.9,60.6 61.7,52.8 80.1,52.8 117.9,60.6 121.5,60.6 	"/>
	<path class="st2" d="M125.5,58L79.8,35.2h-8h-8L18.1,58v3l2.5-1.2l0,1l41.1-10.2h18.7l42,10.2v-1.4l3.2,1.6V58z M80.2,47.8H61.5
		l-33.8,8.4l36.1-18.1h8h8l37.4,18.7L80.2,47.8z"/>
	<rect x="27.1" y="89.2" class="st2" width="89" height="1.9"/>
	<rect x="27.6" y="88.9" class="st0" width="88" height="0.4"/>
	<rect x="28.4" y="62.5" class="st5" width="6.7" height="2.1"/>
	<rect x="107.6" y="62.7" class="st5" width="6.7" height="2.1"/>
	<rect x="64.8" y="80.2" class="st1" width="6" height="0.5"/>
	<rect x="93" y="80.2" class="st1" width="6" height="0.5"/>
	<rect x="70.7" y="90.9" class="st2" width="22.7" height="3.6"/>
	<rect x="70.1" y="95.3" class="st2" width="23.9" height="4.6"/>
	<ellipse class="st2" cx="81.8" cy="76.2" rx="4.8" ry="10.3"/>
	<rect x="44.3" y="76.8" class="st1" width="15.6" height="1"/>
	<rect x="42.5" y="109.7" class="st2" width="57.3" height="3.4"/>
	<rect x="38.2" y="104" class="st2" width="71.4" height="1.9"/>
	<rect x="34.9" y="100.6" class="st2" width="74.6" height="0.8"/>
</g>
</svg>
