<?xml version="1.0" encoding="utf-8"?>
<!-- Generator: Adobe Illustrator 24.1.0, SVG Export Plug-In . SVG Version: 6.00 Build 0)  -->
<svg version="1.1" xmlns="http://www.w3.org/2000/svg" xmlns:xlink="http://www.w3.org/1999/xlink" x="0px" y="0px"
	 viewBox="0 0 640 640" style="enable-background:new 0 0 640 640;" xml:space="preserve">
<style type="text/css">
	.st0{fill:#615694;}
	.st1{fill:#CFD1D3;}
	.st2{fill:#FFFFFF;}
	.st3{fill:#9592B2;}
</style>
<g id="Layer_2">
	<rect x="-3.67" y="-3.67" class="st0" width="645.14" height="645.14"/>
</g>
<g id="Layer_1">
	<rect x="42.24" y="387.4" class="st1" width="550.12" height="63.44"/>
	<g>
		<rect x="60.44" y="189.16" class="st1" width="514.81" height="216.82"/>
		<rect x="561.59" y="82.16" class="st2" width="31.44" height="66.99"/>
		<rect x="556.57" y="67.51" class="st2" width="41.1" height="8.31"/>
		<polygon class="st1" points="3.24,178.85 269.15,48.47 377.37,49.5 631.94,178.34 618.54,187.61 376.85,127.32 245.44,131.44 
			11.49,192.76 		"/>
		<rect x="80.67" y="189.51" class="st3" width="477.58" height="55.98"/>
		<g>
			<rect x="459.72" y="270.61" class="st0" width="68.8" height="68.14"/>
			<rect x="483.88" y="216.41" class="st0" width="21.26" height="47.69"/>
			<rect x="508.49" y="216.41" class="st0" width="20.03" height="47.69"/>
			<rect x="459.72" y="216.41" class="st0" width="20.81" height="47.69"/>
		</g>
		<path class="st0" d="M430.78,392.58h-93.7c-1.34,0-2.42-1.08-2.42-2.42V210.73c0-1.34,1.08-2.42,2.42-2.42h93.7
			c1.34,0,2.42,1.08,2.42,2.42v179.43C433.2,391.5,432.12,392.58,430.78,392.58z"/>
		<g>
			<rect x="150.06" y="224.91" class="st0" width="91.94" height="119.43"/>
		</g>
		<rect x="264.62" y="87.9" class="st0" width="12.37" height="14.11"/>
		<rect x="280.57" y="87.9" class="st0" width="12.37" height="14.11"/>
		<rect x="296.51" y="87.9" class="st0" width="12.37" height="14.11"/>
		<rect x="264.62" y="106.25" class="st0" width="12.37" height="14.11"/>
		<rect x="280.57" y="106.25" class="st0" width="12.37" height="14.11"/>
		<rect x="296.51" y="106.25" class="st0" width="12.37" height="14.11"/>
		<g>
			<rect x="327.03" y="87.9" class="st0" width="12.37" height="14.11"/>
			<rect x="342.98" y="87.9" class="st0" width="12.37" height="14.11"/>
			<rect x="358.92" y="87.9" class="st0" width="12.37" height="14.11"/>
		</g>
		<g>
			<rect x="327.03" y="106.25" class="st0" width="12.37" height="14.11"/>
			<rect x="342.98" y="106.25" class="st0" width="12.37" height="14.11"/>
			<rect x="358.92" y="106.25" class="st0" width="12.37" height="14.11"/>
		</g>
		<polygon class="st2" points="277.1,323.17 277.1,334.87 88.32,334.87 88.32,211.09 45.8,211.09 45.8,380.18 88.27,380.18 
			88.27,382.41 277.1,382.41 277.1,382.99 313.81,382.99 313.81,323.17 		"/>
		<rect x="272.27" y="312.55" class="st2" width="46.38" height="10.63"/>
		<g>
			<polygon class="st2" points="590.76,211.09 548.25,211.09 548.25,334.87 493.54,334.87 493.54,323.17 456.82,323.17 
				456.82,384.34 491.71,384.34 493.54,384.34 548.84,384.34 548.84,380.18 590.76,380.18 			"/>
			<polygon class="st2" points="640.7,198.69 371.7,129.64 252.14,130.15 4.27,192.51 -1.91,198.69 42.42,198.69 42.42,211.09 
				91.7,211.09 91.7,198.69 544.87,198.69 544.87,211.09 594.15,211.09 594.15,198.69 			"/>
		</g>
		<rect x="451.99" y="312.55" class="st2" width="46.38" height="10.63"/>
		<polygon class="st1" points="375.44,135.43 256.78,135.43 4.22,197.92 4.3,198.69 29.7,198.69 257.3,149.28 373.76,149.28 
			614.03,198.69 636.8,198.69 		"/>
		<g>
			<path class="st2" d="M372.15,37.65h-50.73H270.7L-3.67,174.28v25.59l260.45-64.44h118.65l266.04,64.39v-28.05L372.15,37.65z
				 M374.66,117.66H256.01L41.46,170.97L270.7,56.2h50.73h50.73l237.24,118.78L374.66,117.66z"/>
		</g>
		<rect x="37.35" y="380.18" class="st2" width="565.25" height="11.75"/>
		<rect x="40.72" y="378.18" class="st0" width="558.7" height="2.76"/>
		<rect x="45.77" y="211.09" class="st3" width="42.6" height="13.43"/>
		<rect x="546.66" y="212.06" class="st3" width="44.11" height="13.43"/>
		<rect x="276.63" y="323.24" class="st1" width="37.84" height="3.21"/>
		<rect x="455.66" y="323.36" class="st1" width="37.84" height="3.21"/>
		<rect x="314.37" y="390.97" class="st2" width="144.03" height="23.06"/>
		<rect x="310.51" y="419.09" class="st2" width="151.76" height="29.05"/>
		<ellipse class="st2" cx="384.76" cy="297.94" rx="30.36" ry="65.39"/>
		<rect x="146.38" y="301.59" class="st1" width="99.3" height="6.13"/>
		<rect x="0.43" y="504.52" class="st2" width="639.6" height="21.3"/>
		<rect x="0.44" y="468.26" class="st2" width="639.37" height="12.31"/>
		<rect x="0.01" y="447.06" class="st2" width="639.81" height="4.87"/>
	</g>
	<rect x="0.43" y="559.52" class="st2" width="639.6" height="46.88"/>
</g>
</svg>
