<?xml version="1.0" encoding="utf-8"?>
<!-- Generator: Adobe Illustrator 24.1.0, SVG Export Plug-In . SVG Version: 6.00 Build 0)  -->
<svg version="1.1" xmlns="http://www.w3.org/2000/svg" xmlns:xlink="http://www.w3.org/1999/xlink" x="0px" y="0px"
	 viewBox="0 0 72 72" style="enable-background:new 0 0 72 72;" xml:space="preserve">
<style type="text/css">
	.st0{fill:#AAD6BB;}
	.st1{fill:#44D880;}
	.st2{display:none;}
	.st3{display:inline;fill:#FFFFFF;}
	.st4{display:inline;fill:#44D880;}
	.st5{display:inline;}
	.st6{fill:#FFFFFF;}
</style>
<g id="disc">
	<circle class="st0" cx="36" cy="36" r="34.82"/>
	<circle class="st1" cx="36" cy="36" r="30.91"/>
</g>
<g id="bus" class="st2">
	<path class="st3" d="M50.52,52.05H21.48c-1.49,0-2.7-1.21-2.7-2.7V17.18c0-1.49,1.21-2.7,2.7-2.7h29.04c1.49,0,2.7,1.21,2.7,2.7
		v32.16C53.22,50.84,52.01,52.05,50.52,52.05z"/>
	<path class="st4" d="M48.22,37.18H23.78c-0.42,0-0.76-0.34-0.76-0.76V23.07c0-0.42,0.34-0.76,0.76-0.76h24.44
		c0.42,0,0.76,0.34,0.76,0.76v13.35C48.98,36.84,48.64,37.18,48.22,37.18z"/>
	<path class="st4" d="M48.22,21.1H23.78c-0.42,0-0.76-0.34-0.76-0.76v-1.22c0-0.42,0.34-0.76,0.76-0.76h24.44
		c0.42,0,0.76,0.34,0.76,0.76v1.22C48.98,20.76,48.64,21.1,48.22,21.1z"/>
	<circle class="st4" cx="25.63" cy="42.69" r="2.56"/>
	<circle class="st4" cx="46.84" cy="42.69" r="2.56"/>
	<path class="st3" d="M25.69,57.16h-2.67c-0.46,0-0.84-0.38-0.84-0.84v-6.44c0-0.46,0.38-0.84,0.84-0.84h2.67
		c0.46,0,0.84,0.38,0.84,0.84v6.44C26.53,56.79,26.16,57.16,25.69,57.16z"/>
	<path class="st3" d="M48.81,57.16h-2.67c-0.46,0-0.84-0.38-0.84-0.84v-6.44c0-0.46,0.38-0.84,0.84-0.84h2.67
		c0.46,0,0.84,0.38,0.84,0.84v6.44C49.65,56.79,49.27,57.16,48.81,57.16z"/>
	<path class="st4" d="M48.22,49.1H23.78c-0.42,0-0.76-0.34-0.76-0.76v-0.31c0-0.42,0.34-0.76,0.76-0.76h24.44
		c0.42,0,0.76,0.34,0.76,0.76v0.31C48.98,48.76,48.64,49.1,48.22,49.1z"/>
</g>
<g id="pedestrian" class="st2">
	<g class="st5">
		<path class="st6" d="M23.42,35.66l1.61-7.24c0,0,0.24-2.2,2.83-3.72c3.75-2.17,4.53-2.5,4.53-2.5s2.65-1.76,4.77-0.51
			c2.11,1.25,2.11,3.4,1.58,6.05s-1.19,7-1.19,7s-0.95,3.63,2.11,5.75c3.07,2.11,3.69,2.8,4.2,6.28c0.51,3.48,1.25,9.32,1.25,9.32
			s0.27,2.03-0.86,2.86c-1.13,0.83-2.74,0.69-3.48,0.12c-0.74-0.57-1.1-1.28-1.43-3.87c-0.33-2.59-0.74-5.99-0.74-5.99
			s-0.18-2.38-2.86-4.5c-2.68-2.11-4.47-3.78-4.47-3.78s-2.49-1.45-1.7-5.21c0.82-3.91,1.22-5.96,1.22-5.96s0.2-3.06-1.22-0.21
			c-0.63,3.22-0.77,4.26-0.77,4.26l-0.6,2.53c0,0-0.48,2.14-2.44,2.08C23.77,38.37,23.18,37,23.42,35.66z"/>
		<path class="st6" d="M38.97,32.52l4.65,3.53c0,0,1.91,1.87,3.65-0.12c1.75-1.99-0.24-3.18-1.47-4.13
			c-1.23-0.95-5.92-4.53-5.92-4.53L38.97,32.52z"/>
		<path class="st6" d="M29.95,41.35l4.71,3.99l-3.4,10.36c0,0-0.54,3.51-3.45,3.22s-2.5-2.56-2.14-3.87
			C26.02,53.74,29.95,41.35,29.95,41.35z"/>
		<circle class="st6" cx="37.14" cy="15.17" r="4.53"/>
	</g>
</g>
<g id="bike" class="st2">
	<g class="st5">
		<path class="st6" d="M21.17,48.12c-5.24,0-9.5-4.26-9.5-9.5c0-5.24,4.26-9.5,9.5-9.5s9.5,4.26,9.5,9.5
			C30.67,43.86,26.41,48.12,21.17,48.12z M21.17,30.78c-4.32,0-7.84,3.52-7.84,7.84s3.52,7.84,7.84,7.84s7.84-3.52,7.84-7.84
			S25.5,30.78,21.17,30.78z"/>
	</g>
	<g class="st5">
		<path class="st6" d="M51.6,48.12c-5.24,0-9.5-4.26-9.5-9.5c0-5.24,4.26-9.5,9.5-9.5s9.5,4.26,9.5,9.5
			C61.1,43.86,56.84,48.12,51.6,48.12z M51.6,30.78c-4.32,0-7.84,3.52-7.84,7.84s3.52,7.84,7.84,7.84s7.84-3.52,7.84-7.84
			S55.92,30.78,51.6,30.78z"/>
	</g>
	<g class="st5">
		<path class="st6" d="M34.51,42.07c-1.79,0-3.25-1.46-3.25-3.25c0-1.79,1.46-3.25,3.25-3.25s3.25,1.46,3.25,3.25
			C37.76,40.61,36.3,42.07,34.51,42.07z M34.51,37.23c-0.88,0-1.59,0.71-1.59,1.59c0,0.88,0.71,1.59,1.59,1.59s1.59-0.71,1.59-1.59
			C36.1,37.94,35.38,37.23,34.51,37.23z"/>
	</g>
	<g class="st5">
		<path class="st6" d="M51.49,39.61c-0.33,0-0.64-0.2-0.77-0.53l-4.9-12.53c-0.09-0.24-0.32-0.4-0.58-0.4l-15.77-0.04c0,0,0,0,0,0
			c-0.22,0-0.42,0.12-0.54,0.3l-7.53,12.36c-0.24,0.39-0.75,0.52-1.14,0.28c-0.39-0.24-0.52-0.75-0.28-1.14l7.53-12.36
			c0.41-0.68,1.16-1.1,1.96-1.1c0,0,0,0,0,0l15.77,0.04c0.95,0,1.78,0.57,2.13,1.45l4.9,12.53c0.17,0.43-0.04,0.91-0.47,1.08
			C51.69,39.59,51.59,39.61,51.49,39.61z"/>
	</g>
	<g class="st5">
		<path class="st6" d="M33.43,37.31c-0.33,0-0.63-0.19-0.77-0.51l-6.38-15.32c-0.18-0.42,0.02-0.91,0.45-1.08
			c0.42-0.18,0.91,0.02,1.08,0.45l6.38,15.32c0.18,0.42-0.02,0.91-0.45,1.08C33.65,37.29,33.54,37.31,33.43,37.31z"/>
	</g>
	<g class="st5">
		<path class="st6" d="M36.65,38.54c-0.19,0-0.39-0.07-0.55-0.21c-0.34-0.3-0.38-0.83-0.08-1.17l9.83-11.17
			c0.3-0.34,0.83-0.38,1.17-0.08c0.34,0.3,0.38,0.83,0.08,1.17l-9.83,11.17C37.11,38.44,36.88,38.54,36.65,38.54z"/>
	</g>
	<g class="st5">
		<path class="st6" d="M32.09,39.65c0,0-0.01,0-0.01,0l-11.41-0.19c-0.46-0.01-0.82-0.39-0.82-0.84c0.01-0.46,0.38-0.82,0.84-0.82
			l11.41,0.19c0.46,0.01,0.82,0.39,0.82,0.84C32.91,39.29,32.54,39.65,32.09,39.65z"/>
	</g>
	<g class="st5">
		<path class="st6" d="M49.7,23.94c-0.11,0-0.18-0.01-0.22-0.02c-0.45-0.08-0.76-0.51-0.68-0.96c0.07-0.43,0.46-0.72,0.88-0.69
			c0.03-0.04,0.17-0.23,0.17-0.84c0-0.94-1.55-1.02-1.68-1.03l-2.86,0.03l0.69,1.89c0.16,0.43-0.06,0.91-0.49,1.06
			c-0.43,0.16-0.91-0.06-1.06-0.49l-1.5-4.1l5.24-0.05l0.01,0c1.15,0.02,3.32,0.6,3.32,2.68c0,0.97-0.25,1.68-0.76,2.11
			C50.36,23.88,49.95,23.94,49.7,23.94z M49.75,22.28c0.01,0,0.01,0,0.02,0C49.76,22.28,49.75,22.28,49.75,22.28z"/>
	</g>
	<g class="st5">
		<path class="st6" d="M26.79,22.15l-2.78-1.17c0,0-0.66-0.88,0.19-1.29c1.3,0,6.73,0,6.73,0s1.2,0.18,0.15,1.01
			C29.62,21.2,26.79,22.15,26.79,22.15z"/>
	</g>
</g>
<g id="house" class="st2">
	<g class="st5">
		<path class="st6" d="M34.62,56.03v-4.89c-1.89-0.12-3.51-0.48-4.86-1.07c-1.35-0.59-2.49-1.38-3.4-2.37
			c-0.91-0.99-1.6-2.14-2.05-3.45c-0.46-1.31-0.72-2.77-0.78-4.38h7.81c0.06,1.16,0.33,2.18,0.8,3.08c0.47,0.9,1.3,1.51,2.49,1.85
			v-7.12c-3.68-0.73-6.38-1.86-8.08-3.4c-1.71-1.54-2.56-3.66-2.56-6.37c0-2.77,0.87-5.03,2.63-6.78c1.75-1.75,4.42-2.75,8.01-2.99
			v-4.52h2.74v4.52c1.89,0.15,3.48,0.51,4.77,1.07c1.29,0.56,2.35,1.29,3.17,2.17c0.82,0.88,1.44,1.89,1.85,3.01
			c0.41,1.13,0.68,2.28,0.8,3.47l-7.62,0.78c-0.37-2.37-1.36-3.8-2.97-4.29v6.48l1.78,0.37c3.44,0.76,5.87,1.96,7.28,3.61
			c1.42,1.64,2.12,3.7,2.12,6.16c0,1.34-0.21,2.61-0.62,3.81c-0.41,1.2-1.07,2.26-1.96,3.17c-0.9,0.91-2.05,1.65-3.47,2.22
			c-1.42,0.56-3.13,0.89-5.14,0.98v4.89H34.62z M31.6,27.17c0,0.73,0.23,1.34,0.68,1.83c0.46,0.49,1.23,0.9,2.33,1.23V24.2
			c-1.19,0.15-1.99,0.51-2.4,1.07C31.81,25.84,31.6,26.47,31.6,27.17z M40.64,41.69c0-0.79-0.23-1.5-0.68-2.12
			c-0.46-0.62-1.33-1.07-2.6-1.35v6.76c1.22-0.12,2.07-0.49,2.56-1.12C40.4,43.23,40.64,42.51,40.64,41.69z"/>
	</g>
</g>
<g id="Layer_6">
	<g>
		<g>
			<polygon class="st6" points="36.96,9.54 24.48,26.55 49.43,26.55 			"/>
		</g>
		<g>
			<polygon class="st6" points="36.96,17.04 21.45,38.18 52.46,38.18 			"/>
		</g>
		<g>
			<polygon class="st6" points="36.96,24.23 17.73,50.45 56.18,50.45 			"/>
		</g>
		<rect x="33.11" y="48.33" class="st6" width="7.69" height="9.94"/>
	</g>
</g>
</svg>
