<?xml version="1.0" encoding="utf-8"?>
<!-- Generator: Adobe Illustrator 24.1.2, SVG Export Plug-In . SVG Version: 6.00 Build 0)  -->
<svg version="1.1" id="Layer_1" xmlns="http://www.w3.org/2000/svg" xmlns:xlink="http://www.w3.org/1999/xlink" x="0px" y="0px"
	 viewBox="0 0 72 72" style="enable-background:new 0 0 72 72;" xml:space="preserve">
<style type="text/css">
	.st0{fill:#CAC8E8;}
	.st1{fill:#ADA7DB;}
	.st2{display:none;}
	.st3{display:inline;fill:#FFFFFF;}
	.st4{display:inline;fill:#44D880;}
	.st5{fill:#FFFFFF;}
</style>
<g id="Layer_1_1_">
	<circle class="st0" cx="36" cy="36" r="34.8"/>
	<circle class="st1" cx="36" cy="36" r="30.9"/>
</g>
<g id="bus" class="st2">
	<path class="st3" d="M50.5,52h-29c-1.5,0-2.7-1.2-2.7-2.7V17.2c0-1.5,1.2-2.7,2.7-2.7h29c1.5,0,2.7,1.2,2.7,2.7v32.2
		C53.2,50.8,52,52,50.5,52z"/>
	<path class="st4" d="M48.2,37.2H23.8c-0.4,0-0.8-0.3-0.8-0.8V23.1c0-0.4,0.3-0.8,0.8-0.8h24.4c0.4,0,0.8,0.3,0.8,0.8v13.3
		C49,36.8,48.6,37.2,48.2,37.2z"/>
	<path class="st4" d="M48.2,21.1H23.8c-0.4,0-0.8-0.3-0.8-0.8v-1.2c0-0.4,0.3-0.8,0.8-0.8h24.4c0.4,0,0.8,0.3,0.8,0.8v1.2
		C49,20.8,48.6,21.1,48.2,21.1z"/>
	<circle class="st4" cx="25.6" cy="42.7" r="2.6"/>
	<circle class="st4" cx="46.8" cy="42.7" r="2.6"/>
	<path class="st3" d="M25.7,57.2H23c-0.5,0-0.8-0.4-0.8-0.8V50c0-0.5,0.4-0.8,0.8-0.8h2.7c0.5,0,0.8,0.4,0.8,0.8v6.4
		C26.5,56.8,26.2,57.2,25.7,57.2z"/>
	<path class="st3" d="M48.8,57.2h-2.7c-0.5,0-0.8-0.4-0.8-0.8V50c0-0.5,0.4-0.8,0.8-0.8h2.7c0.5,0,0.8,0.4,0.8,0.8v6.4
		C49.7,56.8,49.3,57.2,48.8,57.2z"/>
	<path class="st4" d="M48.2,49.1H23.8c-0.4,0-0.8-0.3-0.8-0.8V48c0-0.4,0.3-0.8,0.8-0.8h24.4c0.4,0,0.8,0.3,0.8,0.8v0.3
		C49,48.8,48.6,49.1,48.2,49.1z"/>
</g>
<g id="Layer_3">
	<g>
		<path class="st5" d="M23.4,35.7l1.6-7.2c0,0,0.2-2.2,2.8-3.7c3.8-2.2,4.5-2.5,4.5-2.5s2.7-1.8,4.8-0.5c2.1,1.2,2.1,3.4,1.6,6.1
			s-1.2,7-1.2,7s-1,3.6,2.1,5.8c3.1,2.1,3.7,2.8,4.2,6.3s1.2,9.3,1.2,9.3s0.3,2-0.9,2.9s-2.7,0.7-3.5,0.1c-0.7-0.6-1.1-1.3-1.4-3.9
			s-0.7-6-0.7-6s-0.2-2.4-2.9-4.5s-4.5-3.8-4.5-3.8s-2.5-1.5-1.7-5.2c0.8-3.9,1.2-6,1.2-6s0.2-3.1-1.2-0.2c-0.6,3.2-0.8,4.3-0.8,4.3
			L28,36.5c0,0-0.5,2.1-2.4,2.1C23.8,38.4,23.2,37,23.4,35.7z"/>
		<path class="st5" d="M39,32.5l4.7,3.5c0,0,1.9,1.9,3.7-0.1s-0.2-3.2-1.5-4.1S40,27.3,40,27.3L39,32.5z"/>
		<path class="st5" d="M30,41.3l4.7,4l-3.4,10.4c0,0-0.5,3.5-3.5,3.2s-2.5-2.6-2.1-3.9C26,53.7,30,41.3,30,41.3z"/>
		<circle class="st5" cx="37.1" cy="15.2" r="4.5"/>
	</g>
</g>
</svg>
