<?xml version="1.0" encoding="utf-8"?>
<!-- Generator: Adobe Illustrator 24.1.2, SVG Export Plug-In . SVG Version: 6.00 Build 0)  -->
<svg version="1.1" id="Layer_1" xmlns="http://www.w3.org/2000/svg" xmlns:xlink="http://www.w3.org/1999/xlink" x="0px" y="0px"
	 viewBox="0 0 72 72" style="enable-background:new 0 0 72 72;" xml:space="preserve">
<style type="text/css">
	.st0{fill:#CAC8E8;}
	.st1{fill:#ADA7DB;}
	.st2{display:none;}
	.st3{display:inline;fill:#FFFFFF;}
	.st4{display:inline;fill:#44D880;}
	.st5{display:inline;}
	.st6{fill:#FFFFFF;}
</style>
<g id="disc">
	<circle class="st0" cx="36" cy="36" r="34.8"/>
	<circle class="st1" cx="36" cy="36" r="30.9"/>
</g>
<g id="bus" class="st2">
	<path class="st3" d="M50.5,52h-29c-1.5,0-2.7-1.2-2.7-2.7V17.2c0-1.5,1.2-2.7,2.7-2.7h29c1.5,0,2.7,1.2,2.7,2.7v32.2
		C53.2,50.8,52,52,50.5,52z"/>
	<path class="st4" d="M48.2,37.2H23.8c-0.4,0-0.8-0.3-0.8-0.8V23.1c0-0.4,0.3-0.8,0.8-0.8h24.4c0.4,0,0.8,0.3,0.8,0.8v13.3
		C49,36.8,48.6,37.2,48.2,37.2z"/>
	<path class="st4" d="M48.2,21.1H23.8c-0.4,0-0.8-0.3-0.8-0.8v-1.2c0-0.4,0.3-0.8,0.8-0.8h24.4c0.4,0,0.8,0.3,0.8,0.8v1.2
		C49,20.8,48.6,21.1,48.2,21.1z"/>
	<circle class="st4" cx="25.6" cy="42.7" r="2.6"/>
	<circle class="st4" cx="46.8" cy="42.7" r="2.6"/>
	<path class="st3" d="M25.7,57.2H23c-0.5,0-0.8-0.4-0.8-0.8V50c0-0.5,0.4-0.8,0.8-0.8h2.7c0.5,0,0.8,0.4,0.8,0.8v6.4
		C26.5,56.8,26.2,57.2,25.7,57.2z"/>
	<path class="st3" d="M48.8,57.2h-2.7c-0.5,0-0.8-0.4-0.8-0.8V50c0-0.5,0.4-0.8,0.8-0.8h2.7c0.5,0,0.8,0.4,0.8,0.8v6.4
		C49.7,56.8,49.3,57.2,48.8,57.2z"/>
	<path class="st4" d="M48.2,49.1H23.8c-0.4,0-0.8-0.3-0.8-0.8V48c0-0.4,0.3-0.8,0.8-0.8h24.4c0.4,0,0.8,0.3,0.8,0.8v0.3
		C49,48.8,48.6,49.1,48.2,49.1z"/>
</g>
<g id="pedestrian" class="st2">
	<g class="st5">
		<path class="st6" d="M23.4,35.7l1.6-7.2c0,0,0.2-2.2,2.8-3.7c3.8-2.2,4.5-2.5,4.5-2.5s2.7-1.8,4.8-0.5c2.1,1.2,2.1,3.4,1.6,6.1
			s-1.2,7-1.2,7s-1,3.6,2.1,5.8c3.1,2.1,3.7,2.8,4.2,6.3s1.2,9.3,1.2,9.3s0.3,2-0.9,2.9s-2.7,0.7-3.5,0.1c-0.7-0.6-1.1-1.3-1.4-3.9
			s-0.7-6-0.7-6s-0.2-2.4-2.9-4.5s-4.5-3.8-4.5-3.8s-2.5-1.5-1.7-5.2c0.8-3.9,1.2-6,1.2-6s0.2-3.1-1.2-0.2c-0.6,3.2-0.8,4.3-0.8,4.3
			L28,36.5c0,0-0.5,2.1-2.4,2.1C23.8,38.4,23.2,37,23.4,35.7z"/>
		<path class="st6" d="M39,32.5l4.7,3.5c0,0,1.9,1.9,3.7-0.1s-0.2-3.2-1.5-4.1S40,27.3,40,27.3L39,32.5z"/>
		<path class="st6" d="M30,41.3l4.7,4l-3.4,10.4c0,0-0.5,3.5-3.5,3.2s-2.5-2.6-2.1-3.9C26,53.7,30,41.3,30,41.3z"/>
		<circle class="st6" cx="37.1" cy="15.2" r="4.5"/>
	</g>
</g>
<g id="bike" class="st2">
	<g class="st5">
		<path class="st6" d="M21.2,48.1c-5.2,0-9.5-4.3-9.5-9.5s4.3-9.5,9.5-9.5s9.5,4.3,9.5,9.5S26.4,48.1,21.2,48.1z M21.2,30.8
			c-4.3,0-7.8,3.5-7.8,7.8s3.5,7.8,7.8,7.8s7.8-3.5,7.8-7.8S25.5,30.8,21.2,30.8z"/>
	</g>
	<g class="st5">
		<path class="st6" d="M51.6,48.1c-5.2,0-9.5-4.3-9.5-9.5s4.3-9.5,9.5-9.5s9.5,4.3,9.5,9.5S56.8,48.1,51.6,48.1z M51.6,30.8
			c-4.3,0-7.8,3.5-7.8,7.8s3.5,7.8,7.8,7.8s7.8-3.5,7.8-7.8S55.9,30.8,51.6,30.8z"/>
	</g>
	<g class="st5">
		<path class="st6" d="M34.5,42.1c-1.8,0-3.2-1.5-3.2-3.2s1.5-3.2,3.2-3.2s3.2,1.5,3.2,3.2S36.3,42.1,34.5,42.1z M34.5,37.2
			c-0.9,0-1.6,0.7-1.6,1.6s0.7,1.6,1.6,1.6s1.6-0.7,1.6-1.6S35.4,37.2,34.5,37.2z"/>
	</g>
	<g class="st5">
		<path class="st6" d="M51.5,39.6c-0.3,0-0.6-0.2-0.8-0.5l-4.9-12.5c-0.1-0.2-0.3-0.4-0.6-0.4H29.4l0,0c-0.2,0-0.4,0.1-0.5,0.3
			l-7.5,12.4c-0.2,0.4-0.8,0.5-1.1,0.3s-0.5-0.8-0.3-1.1l7.5-12.4c0.4-0.7,1.2-1.1,2-1.1l0,0h15.8c1,0,1.8,0.6,2.1,1.5l4.9,12.5
			c0.2,0.4,0,0.9-0.5,1.1C51.7,39.6,51.6,39.6,51.5,39.6z"/>
	</g>
	<g class="st5">
		<path class="st6" d="M33.4,37.3c-0.3,0-0.6-0.2-0.8-0.5l-6.4-15.3c-0.2-0.4,0-0.9,0.5-1.1c0.4-0.2,0.9,0,1.1,0.5l6.4,15.3
			c0.2,0.4,0,0.9-0.5,1.1C33.7,37.3,33.5,37.3,33.4,37.3z"/>
	</g>
	<g class="st5">
		<path class="st6" d="M36.7,38.5c-0.2,0-0.4-0.1-0.5-0.2c-0.3-0.3-0.4-0.8-0.1-1.2L45.8,26c0.3-0.3,0.8-0.4,1.2-0.1
			c0.3,0.3,0.4,0.8,0.1,1.2l-9.8,11.2C37.1,38.4,36.9,38.5,36.7,38.5z"/>
	</g>
	<g class="st5">
		<path class="st6" d="M32.1,39.7L32.1,39.7l-11.4-0.2c-0.5,0-0.8-0.4-0.8-0.8c0-0.5,0.4-0.8,0.8-0.8L32.1,38c0.5,0,0.8,0.4,0.8,0.8
			C32.9,39.3,32.5,39.7,32.1,39.7z"/>
	</g>
	<g class="st5">
		<path class="st6" d="M49.7,23.9c-0.1,0-0.2,0-0.2,0c-0.5-0.1-0.8-0.5-0.7-1c0.1-0.4,0.5-0.7,0.9-0.7c0,0,0.2-0.2,0.2-0.8
			c0-0.9-1.5-1-1.7-1h-2.9l0.7,1.9c0.2,0.4-0.1,0.9-0.5,1.1s-0.9-0.1-1.1-0.5l-1.5-4.1h5.2l0,0c1.2,0,3.3,0.6,3.3,2.7
			c0,1-0.2,1.7-0.8,2.1C50.4,23.9,50,23.9,49.7,23.9z M49.8,22.3L49.8,22.3L49.8,22.3z"/>
	</g>
	<g class="st5">
		<path class="st6" d="M26.8,22.1L24,21c0,0-0.7-0.9,0.2-1.3c1.3,0,6.7,0,6.7,0s1.2,0.2,0.1,1C29.6,21.2,26.8,22.1,26.8,22.1z"/>
	</g>
</g>
<g id="house">
	<g>
		<path class="st6" d="M34.6,56v-4.9c-1.9-0.1-3.5-0.5-4.9-1.1s-2.5-1.4-3.4-2.4s-1.6-2.1-2-3.5c-0.5-1.3-0.7-2.8-0.8-4.4h7.8
			c0.1,1.2,0.3,2.2,0.8,3.1c0.5,0.9,1.3,1.5,2.5,1.8v-7.1c-3.7-0.7-6.4-1.9-8.1-3.4s-2.6-3.7-2.6-6.4c0-2.8,0.9-5,2.6-6.8
			c1.8-1.8,4.4-2.8,8-3v-4.5h2.7v4.5c1.9,0.1,3.5,0.5,4.8,1.1s2.3,1.3,3.2,2.2s1.4,1.9,1.8,3c0.4,1.1,0.7,2.3,0.8,3.5l-7.6,0.8
			c-0.4-2.4-1.4-3.8-3-4.3v6.5l1.8,0.4c3.4,0.8,5.9,2,7.3,3.6c1.4,1.6,2.1,3.7,2.1,6.2c0,1.3-0.2,2.6-0.6,3.8s-1.1,2.3-2,3.2
			s-2,1.7-3.5,2.2c-1.4,0.6-3.1,0.9-5.1,1V56H34.6L34.6,56z M31.6,27.2c0,0.7,0.2,1.3,0.7,1.8c0.5,0.5,1.2,0.9,2.3,1.2v-6
			c-1.2,0.1-2,0.5-2.4,1.1C31.8,25.8,31.6,26.5,31.6,27.2z M40.6,41.7c0-0.8-0.2-1.5-0.7-2.1s-1.3-1.1-2.6-1.3V45
			c1.2-0.1,2.1-0.5,2.6-1.1C40.4,43.2,40.6,42.5,40.6,41.7z"/>
	</g>
</g>
</svg>
