<?xml version="1.0" encoding="utf-8"?>
<!-- Generator: Adobe Illustrator 24.1.0, SVG Export Plug-In . SVG Version: 6.00 Build 0)  -->
<svg version="1.1" xmlns="http://www.w3.org/2000/svg" xmlns:xlink="http://www.w3.org/1999/xlink" x="0px" y="0px"
	 viewBox="0 0 72 72" style="enable-background:new 0 0 72 72;" xml:space="preserve">
<style type="text/css">
	.st0{fill:#AAD6BB;}
	.st1{fill:#44D880;}
	.st2{display:none;}
	.st3{display:inline;fill:#FFFFFF;}
	.st4{display:inline;fill:#44D880;}
	.st5{fill:#FFFFFF;}
</style>
<g id="Layer_1">
	<circle class="st0" cx="36" cy="36" r="34.82"/>
	<circle class="st1" cx="36" cy="36" r="30.91"/>
</g>
<g id="bus" class="st2">
	<path class="st3" d="M50.52,52.05H21.48c-1.49,0-2.7-1.21-2.7-2.7V17.18c0-1.49,1.21-2.7,2.7-2.7h29.04c1.49,0,2.7,1.21,2.7,2.7
		v32.16C53.22,50.84,52.01,52.05,50.52,52.05z"/>
	<path class="st4" d="M48.22,37.18H23.78c-0.42,0-0.76-0.34-0.76-0.76V23.07c0-0.42,0.34-0.76,0.76-0.76h24.44
		c0.42,0,0.76,0.34,0.76,0.76v13.35C48.98,36.84,48.64,37.18,48.22,37.18z"/>
	<path class="st4" d="M48.22,21.1H23.78c-0.42,0-0.76-0.34-0.76-0.76v-1.22c0-0.42,0.34-0.76,0.76-0.76h24.44
		c0.42,0,0.76,0.34,0.76,0.76v1.22C48.98,20.76,48.64,21.1,48.22,21.1z"/>
	<circle class="st4" cx="25.63" cy="42.69" r="2.56"/>
	<circle class="st4" cx="46.84" cy="42.69" r="2.56"/>
	<path class="st3" d="M25.69,57.16h-2.67c-0.46,0-0.84-0.38-0.84-0.84v-6.44c0-0.46,0.38-0.84,0.84-0.84h2.67
		c0.46,0,0.84,0.38,0.84,0.84v6.44C26.53,56.79,26.16,57.16,25.69,57.16z"/>
	<path class="st3" d="M48.81,57.16h-2.67c-0.46,0-0.84-0.38-0.84-0.84v-6.44c0-0.46,0.38-0.84,0.84-0.84h2.67
		c0.46,0,0.84,0.38,0.84,0.84v6.44C49.65,56.79,49.27,57.16,48.81,57.16z"/>
	<path class="st4" d="M48.22,49.1H23.78c-0.42,0-0.76-0.34-0.76-0.76v-0.31c0-0.42,0.34-0.76,0.76-0.76h24.44
		c0.42,0,0.76,0.34,0.76,0.76v0.31C48.98,48.76,48.64,49.1,48.22,49.1z"/>
</g>
<g id="Layer_3">
	<g>
		<path class="st5" d="M23.42,35.66l1.61-7.24c0,0,0.24-2.2,2.83-3.72c3.75-2.17,4.53-2.5,4.53-2.5s2.65-1.76,4.77-0.51
			c2.11,1.25,2.11,3.4,1.58,6.05s-1.19,7-1.19,7s-0.95,3.63,2.11,5.75c3.07,2.11,3.69,2.8,4.2,6.28c0.51,3.48,1.25,9.32,1.25,9.32
			s0.27,2.03-0.86,2.86c-1.13,0.83-2.74,0.69-3.48,0.12c-0.74-0.57-1.1-1.28-1.43-3.87c-0.33-2.59-0.74-5.99-0.74-5.99
			s-0.18-2.38-2.86-4.5c-2.68-2.11-4.47-3.78-4.47-3.78s-2.49-1.45-1.7-5.21c0.82-3.91,1.22-5.96,1.22-5.96s0.2-3.06-1.22-0.21
			c-0.63,3.22-0.77,4.26-0.77,4.26l-0.6,2.53c0,0-0.48,2.14-2.44,2.08C23.77,38.37,23.18,37,23.42,35.66z"/>
		<path class="st5" d="M38.97,32.52l4.65,3.53c0,0,1.91,1.87,3.65-0.12c1.75-1.99-0.24-3.18-1.47-4.13
			c-1.23-0.95-5.92-4.53-5.92-4.53L38.97,32.52z"/>
		<path class="st5" d="M29.95,41.35l4.71,3.99l-3.4,10.36c0,0-0.54,3.51-3.45,3.22s-2.5-2.56-2.14-3.87
			C26.02,53.74,29.95,41.35,29.95,41.35z"/>
		<circle class="st5" cx="37.14" cy="15.17" r="4.53"/>
	</g>
</g>
</svg>
